<?xml version="1.0" encoding="UTF-8"?>
<svg xmlns="http://www.w3.org/2000/svg" viewBox="0 0 510.24 510.24">
  <defs>
    <style>
      .cls-1 {
        fill: #524f47;
      }

      .cls-2 {
        fill: #001158;
      }
    </style>
  </defs>
  <g id="Layer_2_copy" data-name="Layer 2 copy">
    <g>
      <rect class="cls-1" x="170.08" y="141.73" width="28.35" height="113.39"/>
      <polygon class="cls-1" points="481.81 28.35 481.81 28.26 28.27 28.26 28.27 56.6 28.35 56.6 28.35 141.73 28.35 170.08 56.69 170.08 85.04 170.08 85.04 141.73 56.69 141.73 56.69 56.6 198.43 56.6 198.43 113.39 226.77 113.39 226.77 56.6 311.81 56.6 311.81 85.04 255.12 85.04 255.12 113.39 311.81 113.39 340.16 113.39 425.2 113.39 425.2 85.04 340.16 85.04 340.16 56.6 453.54 56.6 453.54 311.81 425.2 311.81 396.85 311.81 396.85 340.16 396.85 368.5 425.2 368.5 425.2 340.16 453.54 340.16 481.89 340.16 481.89 311.81 481.89 28.35 481.81 28.35"/>
      <polygon class="cls-1" points="453.54 425.2 425.2 425.2 425.2 453.45 255.12 453.45 255.12 396.85 283.46 396.85 283.46 368.5 255.12 368.5 255.12 340.16 255.12 311.81 226.77 311.81 226.77 340.16 198.43 340.16 198.43 368.5 226.77 368.5 226.77 396.85 226.77 453.45 85.04 453.45 85.04 425.2 56.69 425.2 56.69 368.5 113.39 368.5 113.39 340.16 56.69 340.16 56.69 283.46 85.04 283.46 85.04 255.12 56.69 255.12 56.69 198.43 28.35 198.43 28.35 255.12 28.35 283.46 28.35 340.16 28.35 368.5 28.35 425.2 28.35 453.45 28.27 453.45 28.27 481.8 28.35 481.8 28.35 481.89 56.69 481.89 56.69 481.8 226.77 481.8 226.77 481.89 255.12 481.89 255.12 481.8 453.54 481.8 453.54 481.89 481.89 481.89 481.89 453.54 481.89 425.2 481.89 368.5 453.54 368.5 453.54 425.2"/>
    </g>
  </g>
  <g id="Layer_3_copy" data-name="Layer 3 copy">
    <g>
      <path class="cls-2" d="M311.81,283.46v-141.73h-85.04v28.35h56.69v28.35h-56.69v85.04h85.04ZM255.12,255.12v-28.35h28.35v28.35h-28.35Z"/>
      <polygon class="cls-2" points="396.85 141.73 368.5 141.73 340.16 141.73 340.16 170.08 340.16 255.12 340.16 283.46 368.5 283.46 396.85 283.46 425.2 283.46 425.2 255.12 425.2 226.77 396.85 226.77 396.85 255.12 368.5 255.12 368.5 170.08 396.85 170.08 396.85 198.43 425.2 198.43 425.2 170.08 425.2 141.73 396.85 141.73"/>
      <polygon class="cls-2" points="340.16 340.16 368.5 340.16 368.5 311.81 340.16 311.81 311.81 311.81 283.46 311.81 283.46 340.16 311.81 340.16 311.81 396.85 311.81 425.2 340.16 425.2 396.85 425.2 396.85 396.85 340.16 396.85 340.16 340.16"/>
      <polygon class="cls-2" points="141.73 283.46 113.39 283.46 113.39 311.81 141.73 311.81 141.73 396.85 113.39 396.85 113.39 425.2 141.73 425.2 170.08 425.2 198.43 425.2 198.43 396.85 170.08 396.85 170.08 311.81 198.43 311.81 198.43 283.46 170.08 283.46 141.73 283.46"/>
      <polygon class="cls-2" points="113.39 255.12 141.73 255.12 141.73 113.39 170.08 113.39 170.08 85.04 141.73 85.04 113.39 85.04 85.04 85.04 85.04 113.39 113.39 113.39 113.39 255.12"/>
    </g>
  </g>
</svg>